<?xml version="1.0" encoding="iso-8859-1"?>
<!-- Uploaded to: SVG Repo, www.svgrepo.com, Generator: SVG Repo Mixer Tools -->
<svg fill="#000000" height="800px" width="800px" version="1.1" id="Layer_1" xmlns="http://www.w3.org/2000/svg" xmlns:xlink="http://www.w3.org/1999/xlink" 
	 viewBox="0 0 512.001 512.001" xml:space="preserve">
<g>
	<g>
		<path d="M511.906,17.838c-0.679-4.462-4.856-7.531-9.304-6.851L341.807,35.412c-4.462,0.678-7.529,4.843-6.851,9.304
			c0.615,4.046,4.097,6.945,8.068,6.945c0.409,0,0.823-0.031,1.237-0.094l160.794-24.424
			C509.517,26.465,512.584,22.299,511.906,17.838z"/>
	</g>
</g>
<g>
	<g>
		<path d="M166.037,93.129c-0.678-4.462-4.845-7.524-9.305-6.851L6.946,109.03c-4.461,0.678-7.529,4.843-6.851,9.304
			c0.614,4.045,4.097,6.945,8.068,6.945c0.409,0,0.821-0.031,1.237-0.094l149.786-22.752
			C163.647,101.755,166.715,97.59,166.037,93.129z"/>
	</g>
</g>
<g>
	<g>
		<path d="M462.433,344.238h-16.34c-4.513,0-8.17,3.657-8.17,8.17s3.657,8.17,8.17,8.17h16.34c4.513,0,8.17-3.657,8.17-8.17
			S466.946,344.238,462.433,344.238z"/>
	</g>
</g>
<g>
	<g>
		<path d="M65.908,376.919h-16.34c-4.512,0-8.17,3.657-8.17,8.17c0,4.513,3.658,8.17,8.17,8.17h16.34c4.512,0,8.17-3.657,8.17-8.17
			C74.078,380.576,70.42,376.919,65.908,376.919z"/>
	</g>
</g>
<g>
	<g>
		<path d="M503.829,408.51h-174.87l-9.02-124.022c10.291,6.891,22.519,10.729,35.192,10.729c19.409,0,37.698-9.106,49.566-23.996
			c11.867,14.89,30.157,23.996,49.566,23.996c24.058,0,46.399-13.993,56.914-35.648c1.972-4.059,0.279-8.947-3.78-10.917
			c-4.062-1.973-8.947-0.278-10.918,3.78c-7.922,16.313-24.099,26.445-42.217,26.445c-18.118,0-34.294-10.133-42.217-26.445
			c-1.366-2.815-4.22-4.601-7.349-4.601c-3.129,0-5.983,1.787-7.349,4.601c-7.922,16.313-24.099,26.445-42.217,26.445
			c-14.409,0-28.04-6.694-36.908-17.995l-9.862-135.604h13.001c4.513,0,8.17-3.657,8.17-8.17V84.427c0-4.513-3.657-8.17-8.17-8.17
			h-24.51v-16.82c0.883,0.313,1.801,0.479,2.717,0.479c2.484,0,4.937-1.127,6.543-3.268c2.707-3.609,1.975-8.731-1.634-11.438
			l-40.306-30.23V8.172c0-4.513-3.657-8.17-8.17-8.17c-4.512,0-8.17,3.657-8.17,8.17v6.808l-40.306,30.23
			c-3.61,2.707-4.341,7.829-1.634,11.438c2.196,2.929,5.982,3.963,9.26,2.803v16.805h-24.51c-4.512,0-8.17,3.657-8.17,8.17v32.681
			c0,4.513,3.658,8.17,8.17,8.17h13.001l-9.862,135.604c-8.868,11.301-22.5,17.995-36.908,17.995
			c-18.118,0-34.294-10.133-42.216-26.445c-1.367-2.815-4.221-4.601-7.35-4.601c-3.129,0-5.983,1.787-7.35,4.601
			c-7.922,16.313-24.099,26.445-42.216,26.445s-34.294-10.134-42.216-26.445c-1.972-4.059-6.857-5.75-10.919-3.78
			c-4.059,1.972-5.752,6.86-3.78,10.917c10.518,21.655,32.858,35.648,56.916,35.648c19.409,0,37.699-9.106,49.566-23.996
			c11.866,14.89,30.157,23.996,49.566,23.996c12.672,0,24.9-3.838,35.192-10.729l-9.02,124.022h-25.082
			c-4.512,0-8.17,3.657-8.17,8.17v87.148c0,4.513,3.658,8.17,8.17,8.17c4.512,0,8.17-3.657,8.17-8.17V424.85h337.7
			c4.513,0,8.17-3.657,8.17-8.17C512.001,412.167,508.341,408.51,503.829,408.51z M296.851,92.597h16.34v16.34h-16.34V92.597z
			 M231.49,47.661L256,29.278l24.51,18.383v28.596H231.49V47.661z M280.511,92.597v16.34h-16.34v-16.34H280.511z M231.49,92.597
			h16.34v16.34h-16.34V92.597z M220.023,125.278h71.953l6.14,84.425h-84.232L220.023,125.278z M198.809,108.938v-16.34h16.34v16.34
			H198.809z M199.425,408.51l6.141-84.425h43.107c4.512,0,8.17-3.657,8.17-8.17c0-4.513-3.658-8.17-8.17-8.17h-41.918l5.942-81.702
			h86.609l5.942,81.702h-23.895c-4.513,0-8.17,3.657-8.17,8.17c0,4.513,3.657,8.17,8.17,8.17h25.082l6.14,84.425H199.425z"/>
	</g>
</g>
<g>
	<g>
		<path d="M505.055,109.03l-32.681-4.964c-4.459-0.676-8.627,2.389-9.304,6.851c-0.678,4.461,2.389,8.627,6.851,9.304l32.681,4.964
			c0.416,0.063,0.829,0.094,1.237,0.094c3.971,0,7.452-2.899,8.067-6.945C512.584,113.873,509.516,109.708,505.055,109.03z"/>
	</g>
</g>
<g>
	<g>
		<path d="M439.694,99.101l-84.425-12.823c-4.46-0.67-8.627,2.388-9.304,6.851c-0.678,4.461,2.389,8.627,6.851,9.304l84.425,12.823
			c0.416,0.063,0.829,0.094,1.237,0.094c3.97,0,7.452-2.899,8.067-6.945C447.222,103.944,444.156,99.778,439.694,99.101z"/>
	</g>
</g>
<g>
	<g>
		<path d="M42.079,15.952L9.399,10.988c-4.462-0.671-8.628,2.389-9.305,6.851c-0.677,4.46,2.391,8.627,6.851,9.304l32.681,4.964
			c0.416,0.063,0.829,0.094,1.237,0.094c3.971,0,7.453-2.899,8.068-6.945C49.608,20.796,46.54,16.63,42.079,15.952z"/>
	</g>
</g>
<g>
	<g>
		<path d="M170.194,35.413L74.76,20.915c-4.459-0.678-8.628,2.389-9.305,6.851c-0.676,4.461,2.39,8.627,6.851,9.304l95.434,14.497
			c0.416,0.063,0.829,0.094,1.237,0.094c3.971,0,7.453-2.899,8.068-6.945C177.723,40.256,174.656,36.09,170.194,35.413z"/>
	</g>
</g>
</svg>